<svg width="66" height="60" viewBox="0 0 66 60" fill="none" xmlns="http://www.w3.org/2000/svg">
<path d="M6.7891 11.6237C6.7891 24.8325 0 33.9032 0 40.268C0 46.6327 3.63046 60 32.6836 60C61.7367 60 66 42.0172 66 35.0165C66.0019 2.23417 6.7891 -11.769 6.7891 11.6237Z" fill="#A7DBF1"/>
<g clip-path="url(#clip0)">
<path d="M43.5896 50.2013C41.2385 50.2013 39.0833 49.1114 37.6648 47.2237C36.693 45.9205 36.1758 44.3645 36.1758 42.7296C36.1758 38.6067 39.4987 35.25 43.5896 35.25C43.6288 35.25 43.6679 35.25 43.7071 35.25H43.7228C45.6742 35.2816 47.5002 36.0793 48.8717 37.4852C50.2432 38.8911 50.9955 40.7551 50.9955 42.7296C50.9955 46.8446 47.6726 50.2013 43.5896 50.2013Z" fill="#94DDF2"/>
<path d="M17.2578 44.3093V16.863C17.2578 15.5361 18.3236 14.4619 19.6403 14.4619H40.181C41.4976 14.4619 42.5634 15.5361 42.5634 16.863V32.8885C37.6575 33.4018 33.8174 37.5958 33.8174 42.6823C33.8174 44.0881 34.1073 45.4545 34.6716 46.7104H19.6403C18.3236 46.7104 17.2578 45.6362 17.2578 44.3093Z" fill="#0D88BC"/>
<path d="M27.9396 19.9194H20.9255C20.2751 19.9194 19.75 20.4486 19.75 21.1042C19.75 21.7597 20.2751 22.2889 20.9255 22.2889H27.9396C28.5901 22.2889 29.1152 21.7597 29.1152 21.1042C29.1152 20.4486 28.5901 19.9194 27.9396 19.9194Z" fill="black"/>
<path d="M27.9396 24.6582H20.9255C20.2751 24.6582 19.75 25.1874 19.75 25.8429C19.75 26.4985 20.2751 27.0277 20.9255 27.0277H27.9396C28.5901 27.0277 29.1152 26.4985 29.1152 25.8429C29.1152 25.1874 28.5901 24.6582 27.9396 24.6582Z" fill="black"/>
<path d="M27.9396 29.3975H20.9255C20.2751 29.3975 19.75 29.9266 19.75 30.5822C19.75 31.2377 20.2751 31.7669 20.9255 31.7669H27.9396C28.5901 31.7669 29.1152 31.2377 29.1152 30.5822C29.1152 29.9266 28.5901 29.3975 27.9396 29.3975Z" fill="black"/>
<path d="M27.9396 34.1362H20.9255C20.2751 34.1362 19.75 34.6654 19.75 35.321C19.75 35.9765 20.2751 36.5057 20.9255 36.5057H27.9396C28.5901 36.5057 29.1152 35.9765 29.1152 35.321C29.1152 34.6654 28.5901 34.1362 27.9396 34.1362Z" fill="black"/>
<path d="M27.9396 38.9619H20.9255C20.2751 38.9619 19.75 39.4911 19.75 40.1466C19.75 40.8022 20.2751 41.3314 20.9255 41.3314H27.9396C28.5901 41.3314 29.1152 40.8022 29.1152 40.1466C29.1152 39.4911 28.5901 38.9619 27.9396 38.9619Z" fill="black"/>
<path d="M31.8865 22.2889H38.9006C39.5511 22.2889 40.0761 21.7597 40.0761 21.1042C40.0761 20.4486 39.5511 19.9194 38.9006 19.9194H31.8865C31.236 19.9194 30.7109 20.4486 30.7109 21.1042C30.7109 21.7597 31.236 22.2889 31.8865 22.2889Z" fill="black"/>
<path d="M31.8865 27.0277H38.9006C39.5511 27.0277 40.0761 26.4985 40.0761 25.8429C40.0761 25.1874 39.5511 24.6582 38.9006 24.6582H31.8865C31.236 24.6582 30.7109 25.1874 30.7109 25.8429C30.7109 26.4985 31.236 27.0277 31.8865 27.0277Z" fill="black"/>
<path d="M36.4398 30.5822C36.4398 29.9266 35.9147 29.3975 35.2642 29.3975H31.8865C31.236 29.3975 30.7109 29.9266 30.7109 30.5822C30.7109 31.2377 31.236 31.7669 31.8865 31.7669H35.2642C35.9147 31.7669 36.4398 31.2377 36.4398 30.5822Z" fill="black"/>
<path d="M47.3599 39.2251C46.9181 38.7798 46.1981 38.7798 45.7563 39.2251L43.6352 41.3627L41.5141 39.2251C41.0723 38.7798 40.3523 38.7798 39.9105 39.2251V39.2251C39.4735 39.6654 39.4735 40.3758 39.9105 40.8162L42.044 42.9664L39.9105 45.1165C39.4735 45.5569 39.4735 46.2673 39.9105 46.7077V46.7077C40.3523 47.1529 41.0723 47.1529 41.5141 46.7077L43.6352 44.57L45.7563 46.7077C46.1981 47.1529 46.9181 47.1529 47.3599 46.7077V46.7077C47.7969 46.2673 47.7969 45.5569 47.3599 45.1165L45.2264 42.9664L47.3599 40.8162C47.7969 40.3758 47.7969 39.6654 47.3599 39.2251V39.2251Z" fill="black"/>
<path d="M50.5489 35.8186C49.0206 34.2469 47.0536 33.2596 44.9219 32.9673V16.9024C44.9219 14.2723 42.7981 12.1318 40.1884 12.1318H19.6398C17.0301 12.1318 14.9062 14.2723 14.9062 16.9024V44.3487C14.9062 46.9788 17.0301 49.1192 19.6398 49.1192H36.1602C38.0175 51.3228 40.6899 52.5707 43.5818 52.5707C48.9658 52.5707 53.3467 48.1556 53.3467 42.7216C53.3467 40.1231 52.3514 37.6747 50.5489 35.8186ZM17.2573 44.3487V16.9024C17.2573 15.5755 18.3232 14.5013 19.6398 14.5013H40.1805C41.4971 14.5013 42.563 15.5755 42.563 16.9024V32.9279C37.657 33.4412 33.8169 37.6352 33.8169 42.7216C33.8169 44.1275 34.1069 45.4939 34.6711 46.7497H19.6398C18.3232 46.7497 17.2573 45.6756 17.2573 44.3487ZM43.5896 50.2013C41.2385 50.2013 39.0833 49.1113 37.6649 47.2236C36.6931 45.9204 36.1758 44.3645 36.1758 42.7295C36.1758 38.6067 39.4987 35.2499 43.5896 35.2499C43.6288 35.2499 43.668 35.2499 43.7072 35.2499H43.7228C45.6743 35.2815 47.5003 36.0792 48.8717 37.4851C50.2432 38.891 50.9956 40.755 50.9956 42.7295C50.9956 46.8445 47.6727 50.2013 43.5896 50.2013Z" fill="black"/>
</g>
<defs>
<clipPath id="clip0">
<rect width="40.1254" height="40.4389" fill="white" transform="translate(14.043 12.1318)"/>
</clipPath>
</defs>
</svg>
